<?xml version="1.0" encoding="utf-8"?>
<!-- Generator: Adobe Illustrator 15.1.0, SVG Export Plug-In  -->
<!DOCTYPE svg PUBLIC "-//W3C//DTD SVG 1.1//EN" "http://www.w3.org/Graphics/SVG/1.1/DTD/svg11.dtd" [
	<!ENTITY ns_flows "http://ns.adobe.com/Flows/1.0/">
]>
<svg version="1.1"
	 xmlns="http://www.w3.org/2000/svg" xmlns:xlink="http://www.w3.org/1999/xlink" xmlns:a="http://ns.adobe.com/AdobeSVGViewerExtensions/3.0/"
	 x="0px" y="0px" width="500px" height="150px" viewBox="-9.927 -15.863 500 150" enable-background="new -9.927 -15.863 500 150"
	 xml:space="preserve">
<defs>
</defs>
<path d="M100.836,59.729c-4.001,5.242-12.553,17.103-14.898,17.934c-0.415,1.653-3.034,4.687-4,5.654
	c-3.31,3.309-11.726,8.555-17.244,8.555c-2.62,0-5.241-1.658-6.068-3.729c-0.828-3.447-1.518-4.826-1.38-8.137
	c0.138-1.517,0.552-3.175,0.965-4.413c-0.139-0.967-0.827-2.346-0.689-2.898c0.276-3.31,0.138-6.621,0.414-9.932
	c-0.966,0.689-1.794,1.379-2.621,1.931c-0.69,1.518-1.931,3.311-3.311,4.691c-5.104,4.275-11.174,7.586-16.691,11.447
	c-0.552,0.276-2.069,2.484-2.207,3.036l-0.553,4.827c-0.137,0.69-1.241,2.07-2.069,3.176c0.138,2.479-1.793,6.205-3.448,9.24
	c-2.483,4.689-8.277,12.83-12.691,16.691c-0.827,0.412-3.586,0.826-4.553,0.826c-4.552,0-9.793-3.31-9.793-7.449
	c0-2.757,2.207-8,2.896-14.069l0.552-4.553c0.414-3.172,1.38-5.518,2.208-7.725c-0.415-4.138,0.965-6.344,1.518-9.653
	c0.274-1.105,0-4.278,0.689-7.037c-0.138-4.552-5.518-3.588-4.966-7.726c0.552-4.137,6.897-2.483,7.725-7.309
	c1.104-6.622,2.759-15.45,5.517-17.795c1.518-4.276,1.933-7.312,4.69-12.553c0.689-1.242,1.379-2.621,2.759-3.724
	c0.275-1.794,1.103-2.621,1.793-3.586c1.655-1.931,4.828-3.726,7.311-3.726c3.173,0,5.518,2.069,5.38,4.829
	c-0.276,0.688,0,1.931-0.553,2.758c1.104,2.207,1.381,4.414,0.966,7.312c-0.966,6.069-3.862,12.553-8.14,16.966
	c-6.758,6.897-12,11.588-12.413,14.484c0.275,3.725-0.415,5.794-1.242,8.139c0.551,1.793-0.415,6.621-1.241,8.689
	c-0.553,1.931-1.931,3.312-2.208,4.966c0.276,1.379,0,3.45-0.828,4.415C12.277,85.66,12,90.906,10.76,92.421
	c0.414,2.068-0.966,9.656-0.966,9.656c-0.138,0.966-0.965,2.071-1.241,2.896c-0.139,0.967,0.276,5.794,1.655,5.794
	c0.552,0,1.379-0.967,1.931-1.239c2.621-2.761,5.656-6.897,7.725-8.97c0.415-2.62,1.654-4.688,2.484-6.344
	c1.792-3.448,3.448-6.208,3.999-10.069c0.965-5.655-7.172-4.414-5.793-13.933c0.552-4.276,2.207-8.829,8.553-8.829
	c2.621,0,5.38,2.896,6.069,4.69c0.276,1.38,0.138,5.656,2.759,5.656c0.414,0,1.241-0.139,1.655-0.276
	c1.657-0.689,4.139-3.861,6.622-4.69c2.345-2.621,4.138-7.311,8.552-11.036c0.138-3.861,5.105-3.861,5.932-9.793l1.792-13.243
	c0.138-0.827,0.415-1.517,1.379-2.208c0.553-3.861,3.035-19.311,5.38-22.897c1.242-1.931,2.897-3.035,4.69-3.725
	C75.455,1.379,78.213,0,80.559,0c5.518,0,7.035,8.967,6.483,12.829c-3.311,22.898-20.14,39.451-20.967,42.487
	c0,0.827-0.415,4.138-1.242,5.241c0.552,2.345,0.965,5.655,0.691,8.277c-0.414,5.103-2.622,16.552,2.343,16.552
	c1.795,0,7.312-4.276,9.795-4.966c1.378-3.309,9.38-12.69,10.898-14.622c0.965-2.206,2.896-5.241,4-7.172
	c0.414-0.965,2.622-1.933,2.76-2.897c0.138-1.517,2.758-2.619,4.138-2.619c2.069,0,2.896,2.344,2.896,3.724
	C102.353,57.661,101.111,58.9,100.836,59.729z M29.934,22.898c-2.483,0-9.518,14.898-9.518,16.967c0,2.345,0.551,3.172,2.068,3.172
	c2.897,0,9.518-13.932,9.518-15.311C32.003,25.244,31.865,22.898,29.934,22.898z M78.766,9.517c-0.552,0-1.104,0.276-1.242,0.276
	c-3.036,3.311-5.655,14.484-6.483,18.347c0.138,0.414-0.276,2.897-0.414,3.035c0,0.69,0.965,1.241,1.379,1.104
	c3.173-2.207,8.276-18.485,8.001-21.52C80.007,10.07,79.455,9.517,78.766,9.517z"/>
<path d="M157.394,65.521c-1.242,2.208-8.828,14.623-11.174,15.864c-3.448,5.519-8.553,10.206-13.104,10.206
	c-4.277,0-9.379-3.448-9.932-7.31c-1.241-1.792-1.379-4.828-1.379-7.034c0-1.654,0.828-4.138,0.965-5.656
	c0.277-1.104-0.137-2.896-1.654-2.896c-0.829,0-2.07,0.965-2.622,1.518c-4.552,5.518-8.277,11.864-14.346,16.413
	c-1.379,0.966-5.932,1.796-7.862,1.796c-5.656,0-8.415-7.726-8.415-12.415c0-2.483,0.827-4.966,1.104-7.449
	c0.413-2.899,1.793-6.345,3.724-9.104c3.035-8.829,17.519-25.52,29.106-25.52c2.62,0,11.173,1.656,11.173,4.275
	c0,0.277,0.414,1.933,0.414,2.208c1.103,1.38,5.243,1.38,4.552,4.966c-0.138,1.38-0.69,3.449-1.517,4.69
	c-0.276,3.173-0.829,5.793-1.518,8.691c-0.414,2.068-1.793,4.828-2.758,6.484c0.55,1.931-0.415,6.62-0.415,6.62
	c0,0.965-0.827,2.068-0.965,2.62c-0.139,1.794,0.551,9.657,3.311,9.657c3.172,0,8.828-7.863,12.414-12.002
	c2.344-5.242,5.242-9.518,5.793-10.346c2.069-3.725,3.034-8.139,7.587-8.139c2.345,0,3.174,1.38,3.174,2.759
	C163.05,58.073,158.221,63.592,157.394,65.521z M122.082,41.106c-2.76,0-5.933,2.483-8.416,2.897
	c-7.173,5.379-16.139,19.588-17.242,27.451c-0.138,1.518-0.138,9.519,2.345,9.519c3.035-0.14,8.137-7.725,10.206-9.795
	c2.071-2.206,5.933-6.758,8.278-9.38c2.069-3.172,9.931-13.518,10.484-17.242C127.874,42.21,124.15,41.106,122.082,41.106z"/>
<path d="M193.948,66.351c-0.965,1.931-2.069,3.31-3.309,4.552c-2.898,2.621-5.243,4.414-7.173,5.656
	c-0.139,1.104-0.415,5.791-0.415,6.205c-0.275,2.07-1.517,8.003-4.965,9.108c-1.794,2.617-6.07,4.274-8.69,4.274
	c-3.035,0-11.036-5.24-10.759-7.311c0.828-4.554,4.827-9.382,8.828-11.173c1.931-3.036,6.07-5.105,7.586-5.933
	c0.139-0.966-0.966-4.552-1.241-8.139c-1.379-2.07-2.898-5.657-3.448-7.035c-0.691-0.965-1.381-4.139-2.897-4.139
	c-0.552,0-0.829,0-1.104,0.691c-1.379,1.241-8.138,11.171-9.794,12.276c-0.69,1.379-0.828,2.759-3.173,3.311
	c-0.413,0.276-0.55,0.551-1.241,0.551c-1.932,0-2.897-2.345-2.897-3.861c0-1.793,10.208-15.036,12.139-16.14
	c0.827-2.482,2.621-4.552,4.69-6.069c4.965-4.414,3.448-15.863,12.551-15.863c2.346,0,4.415,0.965,4.415,3.035
	c0,3.311-4.551,6.208-5.792,8c0.274,1.38-1.379,6.897-1.242,7.311c-0.137,2.76,0.69,6.484,0.551,8.829
	c2.069,2.621,2.622,7.448,4.69,10.483c0.829,1.793,0.276,2.759,2.76,2.759c1.378-0.828,5.241-5.517,8.965-8.276
	c1.381-2.76,4.414-5.104,4.553-5.656c1.379-2.207,5.793-0.413,5.793,2.208C203.329,58.35,196.708,64.42,193.948,66.351z
	 M174.361,80.42c-1.93,0-7.173,4.276-7.31,5.933c-0.139,1.104,0.137,3.034,1.103,3.861c0.415,0,0.966,0.277,1.379,0.277
	c2.62,0,4.828-3.174,5.104-5.38c0.138-0.966,0.826-2.899,1.103-4.002C175.741,80.833,175.327,80.42,174.361,80.42z"/>
<path d="M259.609,66.351c-1.931,3.173-5.518,7.311-6.895,9.104c-0.828,3.724-3.726,6.623-5.52,9.519
	c-2.621,4.414-6.068,11.174-13.379,11.033c-1.794,0-2.759-0.687-3.311-1.791c-1.517-2.343-4.276-12.969-3.724-16.002
	c0.415-2.619,1.655-5.38,2.208-8.827c0.827-4.83-0.415-7.588,0.551-12.278c0.414-2.069,1.242-3.449,1.379-5.104
	c0.139-1.103,0.139-2.483-1.792-2.483c-2.345,0-6.208,3.863-7.586,5.518c-2.484,3.034-5.933,6.207-8.278,9.517
	c-0.827,0.966-0.688,2.07-1.104,2.761c-1.931,3.033-4.551,6.345-6.344,8.69c-1.104,3.171-1.656,8.275-6.346,8.275
	c-2.207,0-3.725-1.105-3.449-3.036c0.414-3.583,2.759-7.585,4.138-12.688c0.966-3.449,1.794-7.862,1.519-10.759
	c-0.691,0.413-1.932,4-3.864,4c-1.242,0-2.483-1.103-2.483-3.172c0-1.241,0.277-3.034,1.104-5.105
	c1.932-0.965,2.622-5.792,3.311-6.758c0.966-1.38,0.828-3.587,2.343-4.966c0.829-4.828,5.52-18.76,9.244-23.451
	c0.138-3.172,4.415-10.621,6.897-12.415c0.55-0.275,1.931-0.275,2.619-0.275c5.243,0,6.348,7.863,5.52,11.036
	c-0.276,1.792-7.588,18.622-8.692,20.691c-0.414,0.827-1.379,2.208-2.619,2.621c-1.104,2.345-5.518,6.069-5.518,8.138
	c-0.415,1.38-1.103,7.587,0.689,7.587c2.483,0,11.588-13.104,21.656-13.104c4.552,0,8.416,3.035,7.863,6.898
	c0,0-0.413,2.758-0.551,3.863c-0.552,4.276-1.242,8-2.207,11.31c0.55,1.932-0.277,6.208-0.965,7.863
	c0.412,2.344-0.83,6.206-1.242,8.002c0.412,1.79,1.103,4.274,2.483,4.274c1.931,0,4.688-5.103,7.173-6.483
	c0.965-2.896,6.896-10.758,8.002-12.414c1.652-2.759,4-7.173,5.93-9.656c0.828-0.553,3.449-1.793,4.139-1.793
	c1.516,0,2.76,0.414,2.76,1.655C264.575,59.729,261.406,63.592,259.609,66.351z"/>
<path d="M313.132,63.453c-0.964,1.518-1.793,3.587-2.896,5.104c-2.758,3.586-7.448,8.967-12.414,11.037
	c-5.931,5.239-15.034,9.654-23.035,9.654c-1.656,0-3.312-0.277-4.553-0.827c-7.587-2.482-7.725-6.623-7.587-12.691
	c0.274-11.175,1.654-13.795,3.172-18.346c-1.931,1.516-4.827,4.69-5.932,4.69c-1.653,0-4.001-1.518-4.001-2.898
	c0.415-1.792,9.244-13.931,14.487-17.932c4.967-7.724,11.724-9.794,14.207-10.484c2.345-0.965,5.932-1.793,8.688-1.793
	c3.175,0,8.003,4,7.175,6.759c-0.829,2.621-2.76,6.758-6.069,6.758c-2.623,0-4.001-4.827-8.002-4.827
	c-5.652,0-8.689,8.414-11.172,11.863c-0.275,2.621-1.795,8.139-1.795,8.139c-0.275,1.378-0.55,4.275-0.828,5.653
	c-0.413,1.242-0.552,4.279-1.516,6.347c0.276,4.001,0.136,6.347,3.033,9.935c1.105,1.238,4.141,1.238,6.483,1.238
	c1.519,0,4.555-0.688,4.967-0.826c9.104-2.623,19.728-16.14,22.761-20.831c0.413-1.792,1.654-3.448,2.896-4.689
	c0.966-0.828,3.173-1.241,4.277-1.241c1.792,0,3.723,0.274,3.723,2.346C319.203,57.935,315.066,61.107,313.132,63.453z"/>
<path d="M373.003,65.521c-1.241,2.208-8.828,14.623-11.173,15.864c-3.449,5.519-8.555,10.206-13.105,10.206
	c-4.277,0-9.38-3.448-9.932-7.31c-1.242-1.792-1.381-4.828-1.381-7.034c0-1.654,0.829-4.138,0.966-5.656
	c0.276-1.104-0.137-2.896-1.654-2.896c-0.829,0-2.069,0.965-2.622,1.518c-4.552,5.518-8.275,11.864-14.346,16.413
	c-1.381,0.966-5.931,1.796-7.862,1.796c-5.655,0-8.413-7.726-8.413-12.415c0-2.483,0.826-4.966,1.103-7.449
	c0.413-2.899,1.795-6.345,3.725-9.104c3.034-8.829,17.519-25.52,29.104-25.52c2.621,0,11.175,1.656,11.175,4.275
	c0,0.277,0.414,1.933,0.414,2.208c1.103,1.38,5.241,1.38,4.55,4.966c-0.135,1.38-0.688,3.449-1.515,4.69
	c-0.278,3.173-0.831,5.793-1.519,8.691c-0.414,2.068-1.793,4.828-2.759,6.484c0.55,1.931-0.415,6.62-0.415,6.62
	c0,0.965-0.826,2.068-0.965,2.62c-0.138,1.794,0.551,9.657,3.312,9.657c3.173,0,8.827-7.863,12.414-12.002
	c2.343-5.242,5.242-9.518,5.793-10.346c2.068-3.725,3.035-8.139,7.589-8.139c2.343,0,3.172,1.38,3.172,2.759
	C378.659,58.073,373.829,63.592,373.003,65.521z M337.69,41.106c-2.76,0-5.933,2.483-8.416,2.897
	c-7.172,5.379-16.139,19.588-17.243,27.451c-0.137,1.518-0.137,9.519,2.347,9.519c3.033-0.14,8.139-7.725,10.207-9.795
	c2.07-2.206,5.932-6.758,8.278-9.38c2.067-3.172,9.93-13.518,10.483-17.242C343.484,42.21,339.76,41.106,337.69,41.106z"/>
<path d="M425.973,59.591c-1.516,3.862-6.206,8.553-8.553,11.863c-1.241,1.656-5.516,6.483-8.415,7.31
	c-2.48,2.762-5.104,4.828-7.034,5.243c-0.553,0.139-1.933,0.551-2.344,0.551c-6.484,0-7.863-7.174-7.175-11.447
	c0.138-0.967,0.69-2.069,0.965-3.036l1.796-15.035c0.137-1.242,0-7.035-0.828-7.725c-4.001,2.069-6.07,3.173-9.657,4.414
	c-1.239,1.242-2.896,2.069-4.414,2.897c-1.239,0.553-4.827,8.828-7.448,10.209c-0.276,0.137-1.654,0.414-2.068,0.414
	c-1.517,0-2.483-1.381-2.622-2.622c0-0.966,4.69-8.139,4.828-9.656c0.411-3.726-5.933-3.587-5.933-8.828
	c0-2.483,1.518-7.449,2.346-9.794c0.691-1.242,1.381-2.483,2.76-3.035c1.379-2.759,4.414-7.725,7.725-8.553
	c0.552-0.138,1.381-0.275,2.069-0.552c0.55,0,0.966,0.276,1.378,0.414c4.967,0.966,6.209,2.622,5.519,7.174
	c-0.552,3.725-2.068,7.034-2.62,10.759c-0.139,0.828-0.139,1.794,1.104,1.794c0.553,0,1.102-0.138,1.379-0.552
	c1.38-0.965,4.414-4,5.38-5.379c1.104-2.484,4-6.345,7.862-6.345c1.654,0,4.139,0.827,3.447,2.344
	c-0.136,1.104-0.688,2.207-0.688,3.448c-0.14,1.519,0.413,4.002,0.138,6.485c-0.277,2.62-0.966,4.414-2.207,6.896
	c0.415,3.726-0.55,9.243-1.38,13.244c-0.137,0.825-0.828,1.932-1.242,2.896c-0.411,3.311-0.551,7.035-0.276,10.346
	c0.142,0.828,0.554,1.381,1.519,1.381c0.69,0,0.966,0,1.38-0.416c4.14-2.759,8.14-7.172,10.622-9.655
	c0.552-1.792,3.861-5.104,4.689-6.622c1.656-2.757,2.345-5.103,5.518-6.897c0.828-0.274,1.793-0.55,2.483-0.55
	c1.381,0,3.172,0.827,3.172,2.345C428.457,57.384,426.801,57.935,425.973,59.591z M378.933,33.106c-2.618,0-4.136,5.655-4.136,7.035
	c-0.137,1.103-0.277,3.586,1.24,3.724c0.141,0,0.553-0.414,0.827-0.69c0.829-1.102,3.449-6.62,3.588-7.724
	C380.589,34.348,380.589,33.106,378.933,33.106z"/>
<path d="M478.253,64.006c-1.791,2.345-11.448,15.726-13.932,17.793c-0.55,2.07-2.207,3.726-3.173,5.242
	c-0.965,1.795-0.965,3.726-2.757,5.104c-1.795,1.104-7.313,2.207-9.381,2.207c-5.933,0-6.485-5.93-6.345-9.794
	c0-1.24,0.412-3.585,0.826-4.826c-0.826-2.348-0.689-9.382-3.034-9.382c-0.828,0-1.517,0.691-1.933,1.104
	c-3.998,5.241-6.896,10.896-11.863,15.587c-1.104,0.966-3.585,1.655-4.966,1.655c-5.102,0-7.998-6.347-7.998-10.483
	c0-3.448,2.344-10.069,4.273-12.965c0.277-2.07,0.416-3.727,1.104-5.242c1.104-1.518,2.068-3.587,3.311-5.105
	c0.552-1.931,1.518-3.724,2.346-5.518c2.621-4.414,9.519-12.139,15.588-12.553c0.552-0.137,1.518,0,2.346,0
	c4.825,0,5.379-5.104,6.759-8.138c0.828-2.345,2.758-4.414,4.138-6.207c0.552-4.139,5.518-15.725,11.724-15.725
	c1.658,0,2.899,0.827,2.76,2.207c-0.277,1.655-4.002,9.793-5.239,11.862c-0.417,1.379-0.277,3.034-0.83,4.138
	c-1.381,3.173-9.38,17.933-9.656,19.589l-1.653,12.276c0.135,1.241-0.691,2.621-0.554,3.448c-0.551,2.897,0.554,5.932,0.554,8.828
	c0.135,3.449,0,6.759,0.135,10.208c0,1.38-0.273,3.033-0.273,4.414c0.273,0.552,0.966,1.655,1.654,1.517
	c2.068,0,3.999-2.897,4.967-3.861c0.827-0.826,5.38-6.897,6.206-7.449c2.622-4.276,8.691-13.241,12.83-17.794
	c1.102-0.827,3.585-1.518,4.966-1.518c1.516,0,2.207,0.69,2.207,2.068C483.083,58.9,480.187,61.521,478.253,64.006z M440.043,44.142
	c-1.93,0-3.31,2.345-4.275,3.448c-7.863,8.276-11.587,17.104-12.965,27.312c0,0.692-0.141,3.312,1.515,3.312
	c1.794,0,8.555-11.034,9.793-12.691c1.381-1.93,3.176-4.138,4.278-5.792c1.105-4.414,2.896-7.862,3.726-12.001
	C442.25,46.625,442.115,44.142,440.043,44.142z"/>
</svg>
